# xmcd
#
# Track frame offsets: 
#        150
#        15197
#        27535
#        39962
#        54551
#        67113
#        79418
#        92172
#        105165
#        117439
#        131862
#        144476
#        159096
#        170719
#        185149
#        200147
#        214042
#        228190
#
# Disc length: 3945 seconds
#
# Revision: 0
# Processed by: cddbd v1.5.2PL0 Copyright (c) Steve Scherf et al.
# Submitted via: ExactAudioCopy v0.99pb4
#
DISCID=fb0f6712
DTITLE=Slim Gaillard - Vout For Voutoreenes
DYEAR=1953
DGENRE=Blues
TTITLE0=Cement Mixer
TTITLE1=Laguna
TTITLE2=Slim Gaillard's Boogie
TTITLE3=Ya Ha Ha
TTITLE4=Tutti Frutti
TTITLE5=Central Avenue Boogie
TTITLE6=Dunkin' Bagel
TTITLE7=Boogin' At Berg's
TTITLE8=Harlem Hunch
TTITLE9=Jumpin' At The Record Shop
TTITLE10=Scotchin' With Soda
TTITLE11=Buck Dance Rhythm
TTITLE12=Flat Foot Floogie
TTITLE13=Dizzy Boogie
TTITLE14=Slim's Jams
TTITLE15=Vout Oreenee
TTITLE16=Chicken Rhythm
TTITLE17=Opera In Vout (Groove Juice Symphony)
EXTD=
EXTT0=
EXTT1=
EXTT2=
EXTT3=
EXTT4=
EXTT5=
EXTT6=
EXTT7=
EXTT8=
EXTT9=
EXTT10=
EXTT11=
EXTT12=
EXTT13=
EXTT14=
EXTT15=
EXTT16=
EXTT17=
PLAYORDER=
